<?xml version="1.0" encoding="UTF-8"?>
<svg id="Capa_1" data-name="Capa 1" xmlns="http://www.w3.org/2000/svg" viewBox="0 0 1412.02 274.24">
  <defs>
    <style>
      .cls-1, .cls-2 {
        fill: #fff;
      }

      .cls-3, .cls-4 {
        fill: #e52719;
      }

      .cls-4 {
        font-size: 42px;
      }

      .cls-4, .cls-2 {
        font-family: Kepler-296, 'Kepler 296';
      }

      .cls-5 {
        letter-spacing: .36em;
      }

      .cls-2 {
        font-size: 208px;
      }

      .cls-6 {
        letter-spacing: .37em;
      }
    </style>
  </defs>
  <g>
    <g>
      <path class="cls-1" d="m197.13,101.1l-40.88,88.36h-13.15l-18.3-51.5v51.5h-17.09v-88.36h16.21l24.74,59.83,24.87-59.83h23.6Z"/>
      <path class="cls-3" d="m204.17,101.1v88.36h-17.09v-51.5l-18.43,51.5h-12.39l-33.1-88.36h15.44l24.74,59.83,24.87-59.83h15.95Z"/>
    </g>
    <g>
      <path class="cls-3" d="m176.06,233.96c-48.97,0-88.67-39.7-88.67-88.67s39.7-88.67,88.67-88.67c23.77,0,45.33,9.37,61.25,24.59-18.94-23.96-48.26-39.34-81.17-39.34-57.12,0-103.42,46.3-103.42,103.42s46.3,103.42,103.42,103.42c32.91,0,62.23-15.38,81.17-39.34-15.92,15.22-37.49,24.59-61.25,24.59Z"/>
      <path class="cls-3" d="m176.63,62.74c-26.22,0-49.56,12.24-64.68,31.29,12.7-12.09,29.86-19.52,48.78-19.52,39.08,0,70.77,31.68,70.77,70.77s-31.68,70.77-70.77,70.77c-18.92,0-36.08-7.44-48.78-19.52,15.12,19.06,38.46,31.29,64.68,31.29,45.58,0,82.54-36.95,82.54-82.54s-36.95-82.54-82.54-82.54Z"/>
    </g>
  </g>
  <text class="cls-2" transform="translate(268.18 189.74)"><tspan x="0" y="0">MAKEWEB</tspan></text>
  <text class="cls-4" transform="translate(279.18 248.7)"><tspan class="cls-6" x="0" y="0">CREAM</tspan><tspan class="cls-5" x="229.19" y="0">O</tspan><tspan class="cls-6" x="280.98" y="0">S TU WEB</tspan></text>
  <rect class="cls-3" x="891.73" y="219.23" width="464.4" height="29.47"/>
</svg>