<?xml version="1.0" encoding="utf-8"?>
<!-- Generator: Adobe Illustrator 27.2.0, SVG Export Plug-In . SVG Version: 6.00 Build 0)  -->
<svg version="1.1" id="Capa_1" xmlns="http://www.w3.org/2000/svg" xmlns:xlink="http://www.w3.org/1999/xlink" x="0px" y="0px"
	 viewBox="0 0 1152.8 274.2" style="enable-background:new 0 0 1152.8 274.2;" xml:space="preserve">
<style type="text/css">
	.st0{enable-background:new    ;}
	.st1{fill:#FFFFFF;}
	.st2{fill:#E52719;}
</style>
<g>
	<g class="st0">
		<path class="st1" d="M197.3,35.1v145.6h-40.8V95.8l-30.4,45.6h-17.9L78.2,95.8v84.9H37.4V35.1h39.3l40.8,59.3l41-59.3H197.3z"/>
		<path class="st1" d="M364.8,180.7h-45.3l-7.9-24.3h-47.6l-7.9,24.3h-44.7L265.8,34h44.3L364.8,180.7z M287.8,76.1l-15.4,49.1h30.8
			L287.8,76.1z"/>
		<path class="st1" d="M460.3,180.7l-39.9-44.1v44.1h-41.6V35.1h41.6v40.1l38.9-40.1h51.4l-69.3,69.3l73,76.3H460.3z"/>
		<path class="st1" d="M568.8,70.4v18.7h60.5v34.5h-60.5v21.6h63v35.4H527.2V35.1H631v35.4H568.8z"/>
		<path class="st1" d="M850.7,35.1l-30.2,145.6h-43.9l-29.7-83.8l-30.2,83.8h-43.9L642.7,35.1h44.9l13.9,85.5l29.1-85.5h33.1
			l29.1,85.5l13.7-85.5H850.7z"/>
		<path class="st1" d="M906.2,70.4v18.7h60.5v34.5h-60.5v21.6h63v35.4H864.6V35.1h103.8v35.4H906.2z"/>
		<path class="st1" d="M1112.7,72.5c0,16-8.5,25.4-22.7,32.7c15.6,6.7,25.4,16.2,25.4,36.8c0,24.5-23.7,38.7-51.8,38.7h-72.6V35.1
			h72.4C1090.3,35.1,1112.7,48,1112.7,72.5z M1031.4,68.8v23.5h27c7.7,0,12.1-2.9,12.1-11.4c0-9.4-4.6-12.1-12.1-12.1H1031.4z
			 M1061.2,121.4h-29.7V147h29.7c8.3,0,12.1-3.7,12.1-12.5C1073.2,126,1069.3,121.4,1061.2,121.4z"/>
	</g>
	<g>
		<g class="st0">
			<path class="st2" d="M46.6,224.9c0,4.8,3.4,7.7,7.7,7.7c3.5,0,5.7-0.6,8.6-1.8v7.8c-2.6,1.1-6,1.6-8.6,1.6
				c-9.3,0-16.7-6.6-16.7-15.2c0-8.6,6.9-15.2,16.4-15.2c2.9,0,6.2,0.5,8.9,1.8v7.8c-2.6-1.2-5.5-2-8.9-2
				C49.4,217.3,46.6,220.2,46.6,224.9z"/>
			<path class="st2" d="M109,239.6H98.5l-7.2-8.5v8.5h-8.4v-29.4H95c6.3,0,11.3,4.2,11.3,9.8c0,4.8-2.3,7.5-6.6,9.3L109,239.6z
				 M97.7,220.8c0-2.3-1.2-3.6-3.5-3.6h-2.9v7.6h2.6C96.5,224.9,97.7,223.9,97.7,220.8z"/>
			<path class="st2" d="M135.6,217.4v3.8h12.2v7h-12.2v4.4h12.7v7.1h-21.1v-29.4h21v7.1H135.6z"/>
			<path class="st2" d="M197,239.6h-9.2l-1.6-4.9h-9.6l-1.6,4.9h-9l11-29.6h8.9L197,239.6z M181.5,218.5l-3.1,9.9h6.2L181.5,218.5z"
				/>
			<path class="st2" d="M247.7,210.2v29.4h-8.2v-17.1l-6.1,9.2h-3.6l-6.1-9.2v17.1h-8.2v-29.4h7.9l8.2,12l8.3-12H247.7z"/>
		</g>
		<g class="st0">
			<path class="st2" d="M300.2,224.9c0,8.6-7.9,15.2-16.7,15.2c-8.8,0-16.7-6.6-16.7-15.2c0-8.6,7.9-15.2,16.7-15.2
				C292.3,209.7,300.2,216.3,300.2,224.9z M291.2,224.9c0-4.4-3.4-7.7-7.7-7.7c-4.3,0-7.7,3.3-7.7,7.7c0,4.4,3.4,7.7,7.7,7.7
				C287.8,232.6,291.2,229.4,291.2,224.9z"/>
		</g>
		<g class="st0">
			<path class="st2" d="M334.1,221.7c7.4,2.1,9.5,4.9,9.5,9.4c0,6.8-5.7,9.1-13.2,9.1c-5,0-9.2-1.2-12.6-3.3l2.9-6.5
				c2.8,1.6,5.8,2.6,9.4,2.6c3.7,0,5-0.4,5-1.6c0-1.4-1-2.1-7.1-3.8c-6.4-1.8-8.7-4.7-8.7-9.1c0-5.6,4.2-8.8,12.3-8.8
				c4.2,0,7.7,0.8,11.3,3.1l-3.2,6c-2.6-1.4-4.8-2.1-7.8-2.1c-3,0-4,0.5-4,1.9C327.8,219.8,329.1,220.3,334.1,221.7z"/>
			<path class="st2" d="M412.6,210.2v7.4h-8.3v22h-8.4v-22h-8.3v-7.4H412.6z"/>
			<path class="st2" d="M458.9,210.2v17.6c0,7.3-4.7,12.4-13.7,12.4c-9.1,0-13.8-5.1-13.8-12.4v-17.6h8.4v17.4c0,3.4,2,5,5.4,5
				c3.4,0,5.3-1.6,5.3-5v-17.4H458.9z"/>
			<path class="st2" d="M545.6,210.2l-6.1,29.4h-8.9l-6-16.9l-6.1,16.9h-8.9l-6.1-29.4h9.1l2.8,17.3l5.9-17.3h6.7l5.9,17.3l2.8-17.3
				H545.6z"/>
			<path class="st2" d="M572.3,217.4v3.8h12.2v7h-12.2v4.4h12.7v7.1h-21.1v-29.4h21v7.1H572.3z"/>
			<path class="st2" d="M629.6,217.8c0,3.2-1.7,5.1-4.6,6.6c3.2,1.3,5.1,3.3,5.1,7.4c0,5-4.8,7.8-10.5,7.8H605v-29.4h14.6
				C625.1,210.2,629.6,212.8,629.6,217.8z M613.2,217v4.7h5.5c1.6,0,2.4-0.6,2.4-2.3c0-1.9-0.9-2.4-2.4-2.4H613.2z M619.2,227.7h-6
				v5.2h6c1.7,0,2.4-0.8,2.4-2.5C621.6,228.6,620.8,227.7,619.2,227.7z"/>
		</g>
	</g>
	<rect x="648.5" y="210.2" class="st2" width="464.4" height="29.5"/>
</g>
</svg>
