<?xml version="1.0" encoding="UTF-8"?>
<svg id="Capa_1" data-name="Capa 1" xmlns="http://www.w3.org/2000/svg" viewBox="0 0 279.61 274.24">
  <defs>
    <style>
      .cls-1 {
        fill: #fff;
      }

      .cls-2 {
        fill: #e52719;
      }
    </style>
  </defs>
  <g>
    <path class="cls-1" d="m181,92.94l-40.88,88.36h-13.15l-18.3-51.5v51.5h-17.09v-88.36h16.21l24.74,59.83,24.87-59.83h23.6Z"/>
    <path class="cls-2" d="m188.03,92.94v88.36h-17.09v-51.5l-18.43,51.5h-12.39l-33.1-88.36h15.44l24.74,59.83,24.87-59.83h15.95Z"/>
  </g>
  <g>
    <path class="cls-2" d="m159.92,225.79c-48.97,0-88.67-39.7-88.67-88.67s39.7-88.67,88.67-88.67c23.77,0,45.33,9.37,61.25,24.59-18.94-23.96-48.26-39.34-81.17-39.34-57.12,0-103.42,46.3-103.42,103.42s46.3,103.42,103.42,103.42c32.91,0,62.23-15.38,81.17-39.34-15.92,15.22-37.49,24.59-61.25,24.59Z"/>
    <path class="cls-2" d="m160.49,54.58c-26.22,0-49.56,12.24-64.68,31.29,12.7-12.09,29.86-19.52,48.78-19.52,39.08,0,70.77,31.68,70.77,70.77s-31.68,70.77-70.77,70.77c-18.92,0-36.08-7.44-48.78-19.52,15.12,19.06,38.46,31.29,64.68,31.29,45.58,0,82.54-36.95,82.54-82.54s-36.95-82.54-82.54-82.54Z"/>
  </g>
</svg>